<svg id="Capa_1" enable-background="new 0 0 510 510" height="512" viewBox="0 0 510 510" width="512" xmlns="http://www.w3.org/2000/svg"><g><path d="m225 217.5c24.813 0 45-20.186 45-45v-60c-2.269-59.632-87.753-59.587-90 0v60c0 24.814 20.186 45 45 45zm-15-105c.756-19.877 29.251-19.862 30 0v60c-.756 19.877-29.251 19.862-30 0z"/><path d="m150 187.5h-30v-120h-30v150h60z"/><path d="m360 127.5h-30v-30h30v-30h-60v90h30v30h-30v30h60z"/><path d="m450 127.5h-30v-30h30v-30h-60v90h30v30h-30v30h60z"/><path d="m510 277.5v-270h-480v375.001h-30v15c0 57.896 47.102 104.999 105 104.999h300c57.897 0 105-47.103 105-105v-15h-30v-105zm-450-240h420v210h-260l-55 41.25-55-41.25h-50c0-11.144 0-193.272 0-210zm345 435h-300c-36.219 0-66.523-25.81-73.493-60h142.28l30 30h102.426l30-30 142.28.001c-6.97 34.19-37.274 59.999-73.493 59.999zm45-90h-126.213l-30 30h-77.574l-30-30-126.213.001v-105.001h40l65 48.75 65-48.75h220z"/></g></svg>