<svg id="Capa_1" enable-background="new 0 0 510 510" height="512" viewBox="0 0 510 510" width="512" xmlns="http://www.w3.org/2000/svg"><g><path d="m131.914 129.133c19.612 68.876 61.556 131.25 123.535 175.78l-131.162 71.936 14.426 26.303c147.814-81.096 139.9-76.662 145.429-79.828 4.057 2.309-7.584-4.201 143.574 79.789l14.568-26.225-129.578-71.988c59.973-43.281 102.933-104.749 123.043-175.678l14.104 22.785 25.508-15.791-41.392-66.865-66.864 41.393 15.791 25.508 23.961-14.833c-19.35 68.762-62.562 127.615-122.729 166.781-60.182-39.006-103.685-97.974-123.221-166.685l23.805 14.737 15.791-25.508-66.864-41.393-41.393 66.865 25.508 15.791z"/><path d="m510 450h-450v-450h-30v30h-30v30h30v30h-30v30h30v30h-30v30h30v30h-30v30h30v30h-30v30h30v30h-30v30h30v30h-30v30h30v60h60v30h30v-30h30v30h30v-30h30v30h30v-30h30v30h30v-30h30v30h30v-30h30v30h30v-30h30v30h30v-30h30z"/></g></svg>